<?xml version="1.0" standalone="no"?>
<!DOCTYPE svg PUBLIC "-//W3C//DTD SVG 20010904//EN"
 "http://www.w3.org/TR/2001/REC-SVG-20010904/DTD/svg10.dtd">
<svg version="1.0" xmlns="http://www.w3.org/2000/svg"
 width="300.000000pt" height="300.000000pt" viewBox="0 0 300.000000 300.000000"
 preserveAspectRatio="xMidYMid meet">
<metadata>
Created by potrace 1.10, written by Peter Selinger 2001-2011
</metadata>
<g transform="translate(0.000000,300.000000) scale(0.100000,-0.100000)"
fill="#000000" stroke="none">
<path d="M1375 2445 c-125 -76 -125 -76 -125 -202 0 -121 -2 -125 -102 -177
-64 -33 -73 -32 -178 31 -63 38 -121 43 -160 16 -14 -10 -50 -31 -80 -46 -100
-52 -100 -51 -100 -201 1 -87 5 -136 13 -146 7 -9 48 -38 92 -65 44 -26 86
-55 93 -64 15 -18 16 -141 2 -173 -6 -13 -21 -28 -33 -34 -72 -36 -114 -63
-145 -91 l-34 -32 4 -125 c3 -116 5 -126 27 -150 14 -14 29 -26 34 -26 6 0 18
-6 26 -14 35 -30 130 -75 164 -78 21 -1 46 6 63 17 43 29 64 41 113 64 38 19
48 20 78 9 19 -7 42 -19 51 -28 9 -8 29 -23 44 -32 26 -17 26 -20 30 -137 3
-118 3 -119 32 -143 53 -42 190 -118 214 -118 29 0 149 63 218 116 27 20 28
24 33 141 3 67 8 123 11 126 14 12 99 63 123 74 24 11 34 9 75 -10 26 -13 67
-36 92 -52 48 -31 98 -35 135 -11 11 7 47 28 80 46 103 57 105 60 105 209 0
108 -3 132 -17 148 -22 24 -113 77 -113 66 0 -4 -5 0 -11 10 -5 9 -16 17 -23
17 -7 0 -21 9 -31 19 -13 16 -17 37 -17 101 1 44 4 84 7 90 3 5 40 30 83 55
127 76 116 58 122 202 3 74 1 135 -5 149 -13 30 -176 125 -227 131 -27 4 -44
0 -66 -16 -17 -11 -36 -21 -43 -21 -7 0 -20 -7 -30 -16 -23 -21 -107 -46 -114
-33 -4 5 -21 15 -38 23 -18 7 -47 27 -66 43 l-33 30 1 105 c2 121 -6 137 -87
183 -26 15 -66 38 -89 51 -63 36 -95 31 -198 -31z m235 -27 l110 -63 0 -117
c0 -64 3 -123 6 -132 4 -9 1 -16 -6 -16 -23 0 -210 -112 -210 -126 0 -8 -4
-14 -10 -14 -5 0 -10 6 -10 14 0 14 -182 126 -204 126 -14 0 -9 250 5 264 7 8
196 122 207 125 1 1 52 -27 112 -61z m-603 -378 c40 -23 79 -40 88 -37 8 4 17
2 20 -2 3 -5 -2 -12 -11 -15 -13 -5 -15 -24 -12 -131 2 -81 -1 -125 -7 -127
-35 -9 -204 -115 -200 -125 2 -7 0 -15 -6 -18 -5 -4 -13 3 -17 15 -4 11 -50
45 -107 78 l-100 58 -3 126 -3 126 113 65 112 66 31 -18 c16 -10 63 -37 102
-61z m1266 -7 l78 -45 -3 -126 -3 -126 -100 -58 c-57 -33 -103 -67 -107 -78
-4 -12 -12 -19 -17 -15 -6 3 -8 11 -6 18 4 10 -165 115 -200 125 -6 1 -9 49
-7 124 3 108 2 123 -14 135 -10 7 -16 13 -13 14 2 0 15 2 29 3 14 1 68 28 120
58 l95 56 35 -20 c19 -11 70 -41 113 -65z m-1013 49 c0 -12 -49 -37 -57 -29
-8 8 26 36 45 37 6 0 12 -4 12 -8z m524 -7 c11 -8 16 -18 13 -22 -8 -8 -57 17
-57 29 0 13 23 9 44 -7z m-594 -33 c0 -12 -49 -37 -57 -29 -8 8 26 36 45 37 6
0 12 -4 12 -8z m184 -34 c39 -23 76 -48 82 -57 13 -17 18 -160 6 -176 -9 -14
-96 -68 -143 -90 -35 -17 -37 -17 -77 9 -23 14 -45 26 -49 26 -5 1 -21 11 -37
24 -28 23 -29 26 -28 120 0 89 10 129 30 123 6 -1 25 9 87 49 33 21 55 16 129
-28z m417 10 c37 -18 72 -42 79 -52 28 -44 20 -216 -10 -216 -4 0 -18 -10 -31
-21 -13 -12 -36 -26 -51 -31 -16 -6 -28 -14 -28 -19 0 -25 -72 0 -162 56 -32
20 -49 38 -53 56 -8 36 -4 129 7 154 9 21 142 104 168 105 8 1 45 -14 81 -32z
m62 18 c30 -23 20 -39 -13 -19 -16 9 -30 21 -30 25 0 12 23 9 43 -6z m-343
-141 c0 -19 -4 -35 -10 -35 -5 0 -10 16 -10 35 0 19 5 35 10 35 6 0 10 -16 10
-35z m0 -80 c0 -19 -4 -35 -10 -35 -5 0 -10 16 -10 35 0 19 5 35 10 35 6 0 10
-16 10 -35z m4 -64 c13 -20 190 -112 207 -108 12 3 19 0 19 -9 0 -8 -5 -14
-11 -14 -6 0 -9 -43 -8 -126 l1 -125 -33 -17 c-107 -55 -172 -97 -177 -114 -6
-23 -22 -24 -22 0 0 11 -33 35 -98 72 -53 30 -101 55 -106 55 -4 0 -8 57 -7
127 1 79 -2 129 -9 133 -17 11 -12 27 6 17 12 -7 42 6 113 47 53 30 98 59 99
63 5 11 20 10 26 -1z m-360 -36 c11 -8 16 -18 13 -22 -8 -8 -57 17 -57 29 0
13 23 9 44 -7z m736 7 c0 -12 -49 -37 -57 -29 -8 8 26 36 45 37 6 0 12 -4 12
-8z m89 -61 c115 -68 113 -64 113 -161 1 -96 0 -98 -115 -159 -60 -32 -65 -33
-95 -20 -18 8 -32 17 -32 21 0 5 -9 8 -19 8 -11 0 -23 5 -26 11 -4 5 -17 14
-30 19 -26 10 -35 44 -35 131 0 77 12 104 54 124 20 10 36 21 36 26 0 5 7 9
16 9 8 0 22 7 30 15 22 21 27 20 103 -24z m-855 14 c10 -8 23 -12 27 -9 5 3 9
0 9 -5 0 -6 7 -11 15 -11 8 0 15 -3 15 -7 0 -5 14 -16 30 -25 l30 -17 0 -98
c0 -54 -4 -103 -8 -108 -4 -6 -25 -19 -47 -30 -22 -11 -46 -26 -53 -32 -25
-24 -58 -25 -95 -4 -21 12 -54 30 -74 42 -63 35 -63 35 -63 125 0 90 10 112
63 134 12 5 40 21 62 34 47 29 63 31 89 11z m101 -1 c34 -22 20 -38 -15 -17
-16 9 -27 20 -24 25 7 11 11 10 39 -8z m590 6 c7 -11 -49 -42 -59 -32 -4 3 3
14 16 24 26 20 34 22 43 8z m-927 -151 c-5 -35 -28 -36 -28 -1 0 16 3 32 7 36
11 11 25 -10 21 -35z m1252 0 c0 -20 -4 -29 -12 -27 -15 5 -22 33 -14 54 9 24
26 6 26 -27z m-1250 -79 c0 -20 -5 -30 -15 -30 -10 0 -15 10 -15 30 0 20 5 30
15 30 10 0 15 -10 15 -30z m1250 0 c0 -20 -5 -30 -15 -30 -10 0 -15 10 -15 30
0 20 5 30 15 30 10 0 15 -10 15 -30z m-1138 -133 c55 -33 83 -44 100 -40 23 6
23 6 5 -15 -16 -18 -18 -35 -15 -141 1 -67 -1 -121 -5 -121 -5 0 -53 -25 -106
-55 -54 -30 -102 -55 -108 -55 -6 0 -59 28 -117 61 l-107 62 3 126 3 126 99
57 c54 31 103 61 109 67 6 6 19 3 36 -8 14 -10 61 -39 103 -64z m1246 4 l97
-56 3 -126 3 -126 -107 -62 c-58 -33 -111 -61 -117 -61 -6 0 -54 25 -108 55
-53 30 -101 55 -106 55 -4 0 -6 54 -5 121 3 106 1 123 -15 141 -18 21 -18 21
5 15 16 -4 49 10 114 49 51 30 96 58 102 64 6 6 14 5 23 -2 8 -6 58 -37 111
-67z m-988 39 c0 -14 -49 -44 -58 -36 -4 4 4 16 18 26 28 22 40 25 40 10z
m520 -10 c14 -10 22 -22 18 -26 -9 -8 -58 22 -58 36 0 15 12 12 40 -10z m-410
-61 c42 -22 82 -50 89 -60 18 -30 16 -167 -3 -188 -8 -9 -51 -36 -94 -59 l-79
-42 -49 25 c-27 13 -64 37 -83 52 -31 26 -33 33 -38 101 -3 46 0 84 7 103 12
27 25 37 90 71 14 7 27 15 30 19 6 7 30 17 44 18 5 1 43 -17 86 -40z m426 -1
c38 -22 72 -46 76 -52 11 -16 10 -174 -2 -196 -5 -10 -41 -36 -80 -59 l-70
-40 -63 35 c-34 19 -74 40 -89 46 -15 7 -29 21 -32 32 -10 39 -6 161 7 177 13
17 156 98 173 99 5 0 41 -19 80 -42z m-625 12 c-25 -22 -41 -26 -41 -10 0 11
30 29 50 29 10 0 8 -6 -9 -19z m680 10 c19 -11 26 -30 10 -30 -5 0 -19 9 -32
20 -26 21 -11 27 22 10z m-341 -140 c0 -16 -4 -30 -10 -30 -5 0 -10 14 -10 30
0 17 5 30 10 30 6 0 10 -13 10 -30z m0 -85 c0 -19 -4 -35 -10 -35 -5 0 -10 16
-10 35 0 19 5 35 10 35 6 0 10 -16 10 -35z m106 -124 c56 -31 98 -49 108 -45
17 7 22 -11 6 -21 -6 -4 -10 -58 -10 -128 l0 -122 -110 -62 -109 -63 -108 63
-108 62 -3 120 c-1 66 -7 124 -12 129 -16 16 -11 28 9 21 17 -5 174 77 210
111 12 11 16 11 25 0 6 -7 52 -36 102 -65z m-446 8 c0 -13 -13 -11 -38 7 -12
8 -20 20 -17 25 7 10 55 -18 55 -32z m701 9 c-25 -19 -41 -23 -41 -9 0 13 44
40 54 33 5 -3 -1 -13 -13 -24z m-646 -30 c27 -12 34 -28 11 -28 -17 0 -66 39
-49 40 7 0 24 -5 38 -12z m576 -8 c-24 -21 -51 -26 -51 -12 0 11 39 31 60 31
10 0 8 -6 -9 -19z"/>
<path d="M1398 2397 l-87 -50 95 -54 95 -54 95 54 95 54 -89 52 c-49 28 -96
51 -103 50 -8 0 -53 -24 -101 -52z m167 -14 c25 -16 45 -31 45 -35 0 -9 -67
-53 -95 -61 -20 -7 -125 45 -125 61 0 10 92 61 112 62 9 0 38 -12 63 -27z"/>
<path d="M1300 2226 c0 -90 2 -105 15 -100 8 4 15 2 15 -4 0 -6 -4 -12 -9 -14
-5 -1 31 -26 80 -55 l90 -52 -3 111 -3 112 -45 26 c-25 14 -66 38 -92 53 l-48
28 0 -105z m100 8 c52 -28 60 -43 60 -116 0 -52 -10 -59 -48 -32 -28 19 -28
31 0 53 l21 18 -22 22 c-17 17 -29 21 -52 16 -28 -6 -29 -5 -29 29 0 20 5 36
11 36 6 0 33 -12 59 -26z m5 -64 c3 -5 -8 -16 -24 -25 -38 -19 -52 -1 -14 19
34 19 31 18 38 6z"/>
<path d="M1603 2274 l-93 -55 0 -111 0 -110 25 16 c13 9 54 33 91 53 37 20 62
39 56 41 -7 2 -12 8 -12 14 0 6 7 8 15 4 13 -5 15 10 15 99 0 58 -1 105 -2
105 -2 -1 -45 -26 -95 -56z m60 -21 c3 -5 7 -21 8 -38 4 -31 -13 -41 -38 -22
-16 12 -53 -9 -53 -31 0 -10 10 -26 22 -36 l22 -19 -24 -19 c-31 -25 -54 -20
-53 12 2 108 0 103 51 132 52 29 59 32 65 21z m-8 -113 c-4 -6 -18 -4 -36 5
-16 9 -27 20 -24 25 4 6 18 4 36 -5 16 -9 27 -20 24 -25z"/>
<path d="M783 2042 c-45 -26 -84 -50 -88 -53 -5 -6 164 -109 179 -109 7 0 186
101 186 105 0 4 -180 105 -188 105 -4 0 -44 -22 -89 -48z m151 -17 c20 -14 42
-25 47 -25 25 0 -2 -27 -54 -55 l-57 -30 -55 29 c-30 16 -55 33 -55 39 0 21
77 66 116 67 12 0 38 -11 58 -25z"/>
<path d="M673 1949 c4 -13 7 -64 7 -114 l0 -90 91 -53 c51 -29 92 -51 93 -50
0 2 0 51 -2 110 l-3 107 -62 37 c-34 20 -77 46 -96 57 l-34 21 6 -25z m148
-106 c7 -7 13 -39 14 -72 2 -53 1 -58 -19 -57 -36 2 -103 44 -110 68 -8 30 -8
92 0 112 5 14 13 12 55 -11 27 -14 54 -32 60 -40z"/>
<path d="M968 1907 l-88 -52 0 -107 c0 -60 2 -108 4 -108 15 0 178 104 168
108 -7 2 -12 8 -12 14 0 6 7 8 15 4 13 -4 15 10 15 94 0 55 -3 100 -7 99 -5 0
-47 -23 -95 -52z m67 -15 c6 -4 11 -20 12 -36 1 -26 -1 -28 -29 -22 -61 12
-87 -27 -47 -70 l21 -23 -33 -20 c-18 -11 -35 -18 -38 -16 -5 3 -6 65 -2 117
0 9 20 30 44 47 44 32 56 35 72 23z m-5 -112 c0 -13 -4 -13 -35 2 -14 6 -25
17 -25 25 0 11 6 11 30 -2 17 -9 30 -20 30 -25z"/>
<path d="M2030 2039 c-47 -27 -85 -52 -85 -54 0 -5 172 -105 181 -105 7 0 184
101 184 105 0 5 -178 105 -186 104 -5 0 -47 -23 -94 -50z m164 -16 c25 -16 46
-31 46 -35 0 -5 -21 -22 -47 -38 -35 -23 -56 -29 -79 -26 -41 6 -105 47 -102
65 4 18 85 60 115 61 12 0 42 -12 67 -27z"/>
<path d="M2235 1915 l-90 -53 -5 -111 c-3 -61 -4 -111 -3 -111 1 0 43 24 93
53 l91 54 2 111 c1 62 2 112 2 112 0 -1 -40 -25 -90 -55z m60 -80 c-1 -27 -3
-55 -4 -62 -1 -14 -108 -76 -119 -69 -5 3 -10 30 -11 61 -2 51 1 59 28 84 16
15 45 35 63 44 41 20 47 11 43 -58z"/>
<path d="M1930 1860 c0 -84 2 -98 15 -94 8 4 15 2 15 -4 0 -6 -5 -12 -11 -14
-10 -3 153 -108 167 -108 2 0 4 48 4 108 l0 107 -90 53 c-49 28 -92 52 -95 52
-3 0 -5 -45 -5 -100z m96 19 c59 -34 67 -49 62 -125 -3 -43 -6 -49 -23 -46
-33 6 -65 31 -59 47 4 8 12 15 19 15 20 0 27 32 11 48 -11 11 -21 12 -44 4
-25 -8 -32 -8 -36 5 -13 32 -5 83 12 83 2 0 29 -14 58 -31z m4 -72 c0 -11 -39
-37 -55 -37 -15 0 -1 22 23 34 34 19 32 19 32 3z"/>
<path d="M1408 1677 c-49 -28 -88 -54 -88 -57 0 -3 41 -28 92 -56 l91 -51 94
55 94 54 -96 54 c-52 30 -96 54 -98 53 -1 0 -41 -24 -89 -52z m127 3 c4 -6 24
-19 46 -31 22 -11 39 -25 37 -31 -2 -6 -29 -24 -60 -40 -53 -28 -58 -28 -90
-14 -48 21 -82 51 -74 65 10 15 97 60 118 61 9 0 20 -5 23 -10z"/>
<path d="M1300 1493 l0 -108 87 -50 c48 -27 91 -51 95 -53 5 -2 8 45 8 105 l0
108 -90 53 c-49 28 -92 52 -95 52 -3 0 -5 -48 -5 -107z m101 20 c56 -32 60
-39 66 -109 6 -72 -9 -81 -72 -42 -28 17 -53 36 -57 42 -12 18 -9 136 3 136 6
0 33 -12 60 -27z"/>
<path d="M1598 1546 l-88 -51 0 -108 c0 -60 4 -107 8 -105 4 2 47 25 95 52
l87 50 0 108 c0 59 -3 108 -7 107 -5 -1 -47 -24 -95 -53z m80 -63 c4 -67 -6
-85 -70 -121 -69 -40 -80 -34 -75 37 6 73 10 81 60 113 64 40 81 34 85 -29z"/>
<path d="M773 1312 c-45 -26 -82 -49 -82 -52 -1 -3 40 -29 90 -57 l91 -53 95
54 c108 61 110 48 -15 120 -72 41 -72 41 -72 20 0 -8 -5 -12 -10 -9 -6 4 -8
11 -5 16 11 17 -9 8 -92 -39z m117 -33 c0 -19 -5 -29 -15 -29 -15 0 -22 50 -9
63 12 12 24 -4 24 -34z m75 -3 l29 -24 -61 -31 -62 -31 -50 28 c-54 29 -63 45
-32 62 30 16 51 12 51 -9 0 -40 54 -53 65 -16 3 8 7 22 10 30 6 20 15 19 50
-9z"/>
<path d="M673 1219 c4 -13 7 -63 7 -111 l0 -87 85 -51 c47 -27 89 -50 93 -50
4 0 6 48 4 108 l-3 107 -86 50 c-109 63 -107 63 -100 34z m97 -69 c51 -26 67
-54 66 -115 -1 -62 -14 -66 -78 -25 l-48 30 0 65 c0 38 4 65 10 65 6 0 29 -9
50 -20z"/>
<path d="M973 1184 l-93 -55 0 -109 0 -109 90 52 c59 34 87 54 80 61 -15 15
-12 29 5 22 13 -4 15 10 15 94 0 55 -1 100 -2 100 -2 -1 -45 -26 -95 -56z m74
-47 c-2 -30 -4 -32 -40 -32 -53 0 -68 -27 -35 -62 l23 -25 -30 -23 c-18 -15
-33 -21 -40 -15 -10 8 -14 125 -4 134 23 20 105 63 115 59 7 -2 11 -19 11 -36z
m-39 -63 c30 -21 17 -38 -14 -18 -23 16 -32 34 -16 34 4 0 18 -7 30 -16z"/>
<path d="M2060 1330 c-25 -16 -62 -37 -82 -46 -21 -9 -38 -20 -38 -23 0 -3 43
-30 94 -58 l94 -53 91 53 c49 28 90 54 90 57 1 5 -149 90 -171 99 -6 2 -8 -1
-4 -7 3 -6 2 -13 -4 -17 -5 -3 -10 1 -10 9 0 21 -7 20 -60 -14z m80 -51 c0
-19 -5 -29 -15 -29 -15 0 -22 50 -9 63 12 12 24 -4 24 -34z m-50 0 c0 -22 22
-49 39 -49 11 0 29 28 29 45 1 17 32 32 40 19 4 -6 15 -13 25 -17 34 -13 11
-41 -60 -71 l-41 -18 -51 28 c-56 30 -62 50 -21 71 34 17 40 16 40 -8z"/>
<path d="M1930 1141 c0 -85 2 -99 15 -95 17 7 20 -7 5 -22 -7 -7 21 -27 80
-61 l90 -52 0 109 0 109 -72 42 c-40 23 -83 49 -95 57 l-23 14 0 -101z m95 9
c55 -31 65 -48 65 -112 0 -63 -6 -70 -46 -51 -31 15 -49 53 -24 53 19 0 30 36
16 55 -11 15 -18 16 -44 7 -18 -6 -33 -8 -33 -4 -4 22 -5 68 -2 75 6 11 12 9
68 -23z m5 -69 c0 -14 -48 -42 -55 -32 -3 5 5 17 17 25 25 18 38 20 38 7z"/>
<path d="M2228 1186 l-87 -51 -3 -108 c-2 -59 0 -107 4 -107 4 0 46 23 93 50
l85 51 0 87 c0 48 3 97 6 110 4 12 2 22 -2 21 -5 -1 -48 -24 -96 -53z m72 -16
c12 -8 13 -11 1 -19 -8 -5 -9 -11 -3 -15 10 -6 9 -47 -3 -81 -6 -19 -88 -78
-110 -80 -17 -1 -21 12 -19 76 1 49 5 65 20 75 10 7 24 17 29 21 6 4 17 9 25
11 8 2 19 8 25 13 11 11 16 11 35 -1z"/>
<path d="M1399 945 l-87 -50 93 -53 c51 -28 95 -52 98 -52 3 0 46 24 96 53
l91 54 -87 50 c-62 35 -89 46 -91 37 -4 -18 -20 -18 -24 -1 -2 9 -31 -4 -89
-38z m111 -25 c0 -16 -4 -30 -10 -30 -5 0 -10 14 -10 30 0 17 5 30 10 30 6 0
10 -13 10 -30z m-40 -10 c0 -23 26 -44 45 -36 8 3 15 16 15 30 0 13 6 26 13
29 17 6 67 -21 67 -36 0 -13 -90 -67 -111 -67 -19 0 -109 58 -109 70 0 13 52
39 67 33 7 -3 13 -13 13 -23z"/>
<path d="M1300 772 l0 -111 73 -42 c39 -23 82 -49 95 -57 l22 -14 0 110 0 111
-72 42 c-40 23 -83 49 -95 57 l-23 14 0 -110z m112 10 c41 -26 46 -35 50 -107
3 -62 -11 -67 -76 -28 -48 29 -53 38 -59 110 -6 68 9 72 85 25z"/>
<path d="M1603 822 l-93 -54 0 -110 0 -110 38 22 c20 12 61 36 90 53 30 16 56
35 58 42 3 6 3 56 2 111 l-3 99 -92 -53z m71 -74 c-1 -55 -4 -64 -30 -85 -47
-37 -87 -54 -96 -40 -10 15 -9 96 1 121 8 20 85 66 111 66 13 0 16 -12 14 -62z"/>
</g>
</svg>
