<?xml version="1.0" standalone="no"?>
<!DOCTYPE svg PUBLIC "-//W3C//DTD SVG 20010904//EN"
 "http://www.w3.org/TR/2001/REC-SVG-20010904/DTD/svg10.dtd">
<svg version="1.0" xmlns="http://www.w3.org/2000/svg"
 width="300.000000pt" height="102.000000pt" viewBox="0 0 300.000000 102.000000"
 preserveAspectRatio="xMidYMid meet">
<metadata>
Created by potrace 1.10, written by Peter Selinger 2001-2011
</metadata>
<g transform="translate(0.000000,102.000000) scale(0.100000,-0.100000)"
fill="#000000" stroke="none">
<path d="M962 884 c-29 -7 -75 -23 -102 -35 -47 -20 -50 -24 -50 -58 0 -20 -3
-46 -6 -58 -6 -22 -4 -23 53 -23 33 0 83 9 116 20 31 11 72 20 90 20 45 0 121
-27 143 -51 17 -19 35 -25 33 -11 -1 4 -1 29 0 56 l1 49 50 -5 c28 -3 50 -2
50 1 0 13 -103 75 -152 92 -63 22 -153 23 -226 3z m215 -41 c58 -18 62 -26 35
-61 -17 -22 -21 -23 -62 -12 -64 17 -129 14 -211 -11 -69 -21 -73 -21 -85 -4
-52 71 178 134 323 88z"/>
<path d="M1770 875 c-41 -13 -84 -31 -95 -39 -19 -14 -16 -15 38 -16 l57 0 -6
-55 -7 -54 54 20 c71 27 165 23 208 -9 23 -17 44 -22 91 -22 57 0 60 1 60 24
0 13 2 36 5 52 5 25 0 33 -33 56 -100 69 -239 86 -372 43z m298 -40 c63 -29
72 -38 72 -77 0 -24 -4 -28 -29 -28 -16 0 -54 12 -86 26 -56 26 -96 30 -200
21 -24 -2 -30 2 -31 19 -1 12 -4 26 -7 31 -4 6 4 15 16 21 58 29 186 23 265
-13z"/>
<path d="M1622 796 c-4 -7 -37 -46 -74 -86 l-68 -74 -56 62 c-54 60 -57 62
-104 62 l-49 0 -6 -55 -7 -55 59 -66 59 -67 -77 -81 -77 -81 57 -3 58 -3 -4
-57 -4 -57 32 35 c18 19 52 57 77 85 38 42 46 47 56 34 6 -8 28 -35 49 -59 35
-41 37 -42 37 -18 0 14 3 38 6 54 5 28 7 29 61 25 l56 -3 -54 61 c-30 34 -54
66 -54 71 0 5 33 45 73 89 70 77 72 81 72 131 0 55 -1 56 -68 63 -28 3 -45 1
-50 -7z m88 -52 c0 -36 -15 -60 -82 -134 -41 -45 -58 -70 -54 -83 6 -24 -78
-117 -106 -117 -10 0 -36 -17 -56 -38 l-38 -39 -33 33 -34 33 42 47 c27 30 40
55 38 66 -7 25 78 118 108 118 15 0 43 22 86 70 54 60 68 70 96 70 29 0 33 -3
33 -26z m-312 -70 c37 -43 38 -50 13 -83 -22 -28 -36 -23 -80 33 -29 36 -39
74 -24 89 15 15 60 -5 91 -39z m202 -230 c0 -18 -38 -53 -57 -54 -7 0 -13 11
-13 25 0 16 6 25 15 25 8 0 15 5 15 10 0 6 9 10 20 10 12 0 20 -7 20 -16z"/>
<path d="M740 759 c-63 -88 -94 -223 -71 -316 20 -77 62 -153 86 -153 11 0 36
-3 56 -6 l36 -6 7 55 c5 41 3 63 -7 84 -38 72 -29 176 19 241 l25 32 -62 0
-61 0 7 55 c3 30 4 55 1 55 -3 0 -19 -18 -36 -41z m25 -89 c3 -5 15 -10 26
-10 21 0 24 -16 8 -57 -15 -41 -13 -126 6 -183 20 -59 17 -94 -8 -98 -66 -13
-123 187 -86 299 19 54 39 73 54 49z"/>
<path d="M2196 719 l-7 -50 -54 6 c-57 8 -69 -1 -38 -26 24 -21 43 -73 43
-121 0 -42 -28 -118 -54 -148 -7 -8 -16 -43 -19 -77 l-5 -61 57 -5 c55 -4 57
-3 95 37 106 112 122 256 44 413 -44 89 -54 95 -62 32z m41 -61 c33 -52 43
-176 22 -248 -7 -21 -28 -60 -48 -87 -32 -41 -42 -48 -71 -48 -30 0 -35 4 -38
27 -2 15 12 59 33 103 33 69 36 84 32 139 -2 33 -7 68 -11 77 -5 11 3 20 26
31 41 21 45 21 55 6z"/>
<path d="M900 515 l0 -65 40 0 c47 0 80 27 80 65 0 38 -33 65 -80 65 l-40 0 0
-65z m83 13 c13 -20 -6 -48 -34 -48 -15 0 -19 7 -19 36 0 31 3 35 21 32 12 -2
27 -10 32 -20z"/>
<path d="M1730 560 c-25 -25 -25 -51 -2 -80 35 -43 112 -15 112 41 0 27 -35
59 -65 59 -14 0 -34 -9 -45 -20z m76 -32 c12 -40 -45 -60 -60 -21 -4 9 -1 22
5 29 17 21 47 17 55 -8z"/>
<path d="M1052 538 c-17 -17 -15 -63 2 -77 17 -14 67 -11 66 4 0 6 -9 10 -19
10 -11 0 -23 3 -27 8 -4 4 7 7 24 7 24 0 32 4 32 18 0 24 -19 42 -45 42 -12 0
-26 -5 -33 -12z"/>
<path d="M1159 503 c12 -31 25 -48 36 -48 11 0 23 16 35 48 17 45 17 47 0 47
-11 0 -21 -12 -27 -32 l-11 -33 -7 33 c-5 22 -13 32 -26 32 -18 0 -18 -1 0
-47z"/>
<path d="M1860 546 c-1 -1 -2 -27 -5 -59 -3 -50 -1 -58 13 -55 9 2 16 11 16
19 -1 11 5 14 20 12 32 -6 52 21 40 55 -8 22 -16 27 -47 28 -20 1 -37 1 -37 0z
m60 -40 c0 -8 -5 -18 -11 -22 -14 -8 -33 11 -25 25 10 16 36 13 36 -3z"/>
<path d="M1964 535 c-7 -18 3 -35 22 -35 8 0 14 -5 14 -11 0 -6 -9 -8 -21 -4
-15 5 -20 3 -17 -6 6 -18 45 -24 63 -9 16 13 9 40 -10 40 -8 0 -17 5 -20 11
-4 6 0 9 10 7 10 -2 20 3 22 10 7 18 -56 16 -63 -3z"/>
<path d="M1607 317 c-5 -47 -3 -54 21 -75 132 -113 299 -132 467 -51 l50 24
-58 3 -59 3 7 60 7 60 -35 -21 c-56 -33 -151 -30 -224 8 -34 18 -81 33 -114
36 l-56 6 -6 -53z m165 -19 c57 -29 71 -32 145 -32 75 1 82 0 86 -20 2 -12 7
-28 11 -37 5 -12 -5 -18 -50 -29 -69 -17 -158 -4 -231 33 -70 35 -93 57 -93
89 0 25 3 28 35 28 19 0 62 -14 97 -32z"/>
<path d="M880 332 c0 -63 -8 -72 -64 -72 l-51 -1 25 -21 c42 -35 162 -87 225
-97 98 -15 217 14 278 67 23 20 24 107 1 116 -29 11 -101 6 -137 -9 -21 -8
-66 -15 -104 -15 -56 0 -77 5 -120 29 l-53 29 0 -26z m80 -57 c23 -8 67 -15
97 -15 29 0 70 7 90 15 19 8 55 15 79 15 42 0 44 -1 44 -29 0 -26 -7 -33 -56
-57 -87 -42 -233 -37 -311 12 -21 13 -22 15 -5 44 9 16 18 30 18 30 1 0 21 -7
44 -15z"/>
</g>
</svg>
